<svg preserveAspectRatio="none" width="100%" height="100%" overflow="visible" style="display: block;" viewBox="0 0 19.9905 19.9905" fill="none" xmlns="http://www.w3.org/2000/svg">
<g id="Icon">
<path id="Vector" d="M14.2016 16.8919C13.3853 17.6832 12.494 17.6249 11.6361 17.2251C10.7282 16.8086 9.9036 16.8253 8.9374 17.2251C7.73797 17.7415 7.10494 17.5916 6.38862 16.8919C2.32389 12.7023 2.9236 6.32198 7.53807 6.08876C8.66253 6.14707 9.44549 6.70513 10.1035 6.75511C11.0864 6.5552 12.0276 5.98048 13.0771 6.05544C14.3348 6.15539 15.2844 6.65516 15.9091 7.55473C13.3103 9.11232 13.9267 12.5357 16.3089 13.4936C15.8341 14.743 15.2177 15.984 14.2016 16.9003L14.1932 16.8919H14.2016ZM10.0202 6.03878C9.89528 4.18134 11.4029 2.64874 13.1354 2.49881C13.3769 4.64778 11.1863 6.24702 10.0202 6.03878Z" fill="var(--fill-0, white)"/>
</g>
</svg>
