<svg preserveAspectRatio="none" width="100%" height="100%" overflow="visible" style="display: block;" viewBox="0 0 19.9905 19.9905" fill="none" xmlns="http://www.w3.org/2000/svg">
<g id="Icon" clip-path="url(#clip0_340_207)">
<path id="Vector" d="M18.791 10.2035C18.791 9.55377 18.7327 8.92907 18.6244 8.32936H9.99523V11.8777H14.9262C14.7096 13.0188 14.06 13.985 13.0854 14.6347V16.9419H16.059C17.7915 15.3427 18.791 12.9938 18.791 10.2035Z" fill="var(--fill-0, #4285F4)"/>
<path id="Vector_2" d="M9.99523 19.1575C12.469 19.1575 14.5431 18.3412 16.059 16.9419L13.0854 14.6347C12.2691 15.1844 11.228 15.5176 9.99523 15.5176C7.61303 15.5176 5.589 13.91 4.86434 11.7444H1.8158V14.1099C3.32341 17.1002 6.4136 19.1575 9.99523 19.1575Z" fill="var(--fill-0, #34A853)"/>
<path id="Vector_3" d="M4.86434 11.7361C4.6811 11.1863 4.57282 10.6033 4.57282 9.99523C4.57282 9.38718 4.6811 8.80413 4.86434 8.25439V5.88886H1.8158C1.1911 7.1216 0.832936 8.5126 0.832936 9.99523C0.832936 11.4779 1.1911 12.8689 1.8158 14.1016L4.18967 12.2525L4.86434 11.7361Z" fill="var(--fill-0, #FBBC05)"/>
<path id="Vector_4" d="M9.99523 4.48119C11.3446 4.48119 12.544 4.94764 13.5019 5.84721L16.1256 3.22346C14.5347 1.74084 12.469 0.832936 9.99523 0.832936C6.4136 0.832936 3.32341 2.89029 1.8158 5.88886L4.86434 8.25439C5.589 6.08876 7.61303 4.48119 9.99523 4.48119Z" fill="var(--fill-0, #EA4335)"/>
</g>
<defs>
<clipPath id="clip0_340_207">
<rect width="19.9905" height="19.9905" fill="white"/>
</clipPath>
</defs>
</svg>
