<svg width="391" height="226" viewBox="0 0 391 226" fill="none" xmlns="http://www.w3.org/2000/svg">
<rect width="391" height="226" fill="white"/>
<path d="M103.333 60H112.667" stroke="#6A7282" stroke-width="2" stroke-linecap="round" stroke-linejoin="round"/>
<path d="M108 55.3333V64.6666" stroke="#6A7282" stroke-width="2" stroke-linecap="round" stroke-linejoin="round"/>
<path d="M112 22L104 30" stroke="#6A7282" stroke-width="2" stroke-linecap="round" stroke-linejoin="round"/>
<path d="M104 22L112 30" stroke="#6A7282" stroke-width="2" stroke-linecap="round" stroke-linejoin="round"/>
<path d="M57.3333 24.6667C57.3333 27.9953 53.6407 31.462 52.4007 32.5327C52.2851 32.6195 52.1445 32.6665 52 32.6665C51.8555 32.6665 51.7148 32.6195 51.5993 32.5327C50.3593 31.462 46.6667 27.9953 46.6667 24.6667C46.6667 23.2522 47.2286 21.8956 48.2288 20.8954C49.2289 19.8952 50.5855 19.3333 52 19.3333C53.4145 19.3333 54.771 19.8952 55.7712 20.8954C56.7714 21.8956 57.3333 23.2522 57.3333 24.6667Z" stroke="#6A7282" stroke-width="1.6" stroke-linecap="round" stroke-linejoin="round"/>
<path d="M52 26.6667C53.1046 26.6667 54 25.7712 54 24.6667C54 23.5621 53.1046 22.6667 52 22.6667C50.8954 22.6667 50 23.5621 50 24.6667C50 25.7712 50.8954 26.6667 52 26.6667Z" stroke="#6A7282" stroke-width="1.6" stroke-linecap="round" stroke-linejoin="round"/>
<path d="M30 28.6667L27.3333 31.3333L24.6667 28.6667" stroke="#6A7282" stroke-width="1.66601" stroke-linecap="round" stroke-linejoin="round"/>
<path d="M27.3333 31.3333V20.6667" stroke="#6A7282" stroke-width="1.66601" stroke-linecap="round" stroke-linejoin="round"/>
<path d="M18 23.3333L20.6667 20.6667L23.3333 23.3333" stroke="#6A7282" stroke-width="1.66601" stroke-linecap="round" stroke-linejoin="round"/>
<path d="M20.6667 20.6667V31.3333" stroke="#6A7282" stroke-width="1.66601" stroke-linecap="round" stroke-linejoin="round"/>
<path d="M79.6833 19.53C79.7125 19.471 79.7577 19.4213 79.8136 19.3866C79.8696 19.3518 79.9341 19.3334 80 19.3334C80.0659 19.3334 80.1304 19.3518 80.1864 19.3866C80.2423 19.4213 80.2874 19.471 80.3167 19.53L81.8567 22.6493C81.9581 22.8546 82.1079 23.0323 82.2931 23.167C82.4783 23.3017 82.6934 23.3894 82.92 23.4227L86.364 23.9267C86.4292 23.9361 86.4906 23.9636 86.541 24.0061C86.5914 24.0486 86.6289 24.1044 86.6493 24.1671C86.6697 24.2298 86.6722 24.2969 86.6564 24.361C86.6406 24.425 86.6072 24.4833 86.56 24.5293L84.0693 26.9547C83.9051 27.1147 83.7822 27.3123 83.7112 27.5304C83.6403 27.7485 83.6234 27.9806 83.662 28.2067L84.25 31.6333C84.2615 31.6986 84.2545 31.7657 84.2297 31.8271C84.2048 31.8885 84.1633 31.9417 84.1097 31.9807C84.0561 32.0196 83.9926 32.0427 83.9266 32.0473C83.8605 32.0519 83.7945 32.0378 83.736 32.0067L80.6573 30.388C80.4545 30.2815 80.2288 30.2258 79.9997 30.2258C79.7705 30.2258 79.5448 30.2815 79.342 30.388L76.264 32.0067C76.2055 32.0376 76.1396 32.0515 76.0736 32.0468C76.0077 32.0421 75.9443 32.019 75.8909 31.9801C75.8374 31.9412 75.7959 31.8881 75.7711 31.8268C75.7463 31.7655 75.7392 31.6985 75.7507 31.6333L76.338 28.2073C76.3768 27.9812 76.36 27.7489 76.289 27.5307C76.2181 27.3125 76.0951 27.1148 75.9307 26.9547L73.44 24.53C73.3924 24.484 73.3587 24.4256 73.3426 24.3614C73.3266 24.2972 73.3289 24.2297 73.3494 24.1668C73.3698 24.1038 73.4075 24.0479 73.4582 24.0053C73.5088 23.9628 73.5705 23.9353 73.636 23.926L77.0793 23.4227C77.3062 23.3897 77.5216 23.302 77.707 23.1673C77.8925 23.0326 78.0425 22.8548 78.144 22.6493L79.6833 19.53Z" fill="#6A7282" stroke="#6A7282" stroke-width="1.66601" stroke-linecap="round" stroke-linejoin="round"/>
<path d="M133.333 19.3333V22" stroke="#6A7282" stroke-width="1.6" stroke-linecap="round" stroke-linejoin="round"/>
<path d="M138.667 19.3333V22" stroke="#6A7282" stroke-width="1.6" stroke-linecap="round" stroke-linejoin="round"/>
<path d="M140.667 20.6667H131.333C130.597 20.6667 130 21.2636 130 22V31.3333C130 32.0697 130.597 32.6667 131.333 32.6667H140.667C141.403 32.6667 142 32.0697 142 31.3333V22C142 21.2636 141.403 20.6667 140.667 20.6667Z" stroke="#6A7282" stroke-width="1.6" stroke-linecap="round" stroke-linejoin="round"/>
<path d="M130 24.6667H142" stroke="#6A7282" stroke-width="1.6" stroke-linecap="round" stroke-linejoin="round"/>
<g clip-path="url(#clip0_158_20)">
<path d="M79.6833 53.53C79.7125 53.471 79.7577 53.4213 79.8136 53.3866C79.8696 53.3518 79.9341 53.3334 80 53.3334C80.0659 53.3334 80.1304 53.3518 80.1864 53.3866C80.2423 53.4213 80.2874 53.471 80.3167 53.53L81.8567 56.6493C81.9581 56.8546 82.1079 57.0323 82.2931 57.167C82.4783 57.3017 82.6934 57.3894 82.92 57.4227L86.364 57.9267C86.4292 57.9361 86.4906 57.9636 86.541 58.0061C86.5914 58.0486 86.6289 58.1044 86.6493 58.1671C86.6697 58.2298 86.6722 58.2969 86.6564 58.361C86.6406 58.425 86.6072 58.4833 86.56 58.5293L84.0693 60.9547C83.9051 61.1147 83.7822 61.3123 83.7112 61.5304C83.6403 61.7485 83.6234 61.9806 83.662 62.2067L84.25 65.6333C84.2615 65.6986 84.2545 65.7657 84.2297 65.8271C84.2048 65.8885 84.1633 65.9417 84.1097 65.9807C84.0561 66.0196 83.9926 66.0427 83.9266 66.0473C83.8605 66.0519 83.7945 66.0378 83.736 66.0067L80.6573 64.388C80.4545 64.2815 80.2288 64.2258 79.9997 64.2258C79.7705 64.2258 79.5448 64.2815 79.342 64.388L76.264 66.0067C76.2055 66.0376 76.1396 66.0515 76.0736 66.0468C76.0077 66.0421 75.9443 66.019 75.8909 65.9801C75.8374 65.9412 75.7959 65.8881 75.7711 65.8268C75.7463 65.7655 75.7392 65.6985 75.7507 65.6333L76.338 62.2073C76.3768 61.9812 76.36 61.7489 76.289 61.5307C76.2181 61.3125 76.0951 61.1148 75.9307 60.9547L73.44 58.53C73.3924 58.484 73.3587 58.4256 73.3426 58.3614C73.3266 58.2972 73.3289 58.2297 73.3494 58.1668C73.3698 58.1038 73.4075 58.0479 73.4582 58.0053C73.5088 57.9628 73.5705 57.9353 73.636 57.926L77.0793 57.4227C77.3062 57.3897 77.5216 57.302 77.707 57.1673C77.8925 57.0326 78.0425 56.8548 78.144 56.6493L79.6833 53.53Z" fill="#F3F4F6" stroke="#6A7282" stroke-width="2" stroke-linecap="round" stroke-linejoin="round"/>
</g>
<path d="M166 32L163.107 29.1067" stroke="#6A7282" stroke-width="1.6" stroke-linecap="round" stroke-linejoin="round"/>
<path d="M159.333 30.6667C162.279 30.6667 164.667 28.2789 164.667 25.3333C164.667 22.3878 162.279 20 159.333 20C156.388 20 154 22.3878 154 25.3333C154 28.2789 156.388 30.6667 159.333 30.6667Z" stroke="#6A7282" stroke-width="1.6" stroke-linecap="round" stroke-linejoin="round"/>
<path d="M189.404 21.702C189.589 21.7945 189.793 21.8426 190 21.8426C190.207 21.8426 190.411 21.7945 190.596 21.702L193.035 20.482C193.137 20.4312 193.25 20.4072 193.364 20.4124C193.477 20.4176 193.588 20.4517 193.684 20.5116C193.781 20.5714 193.861 20.655 193.916 20.7544C193.971 20.8538 194 20.9656 194 21.0793V29.5887C194 29.7124 193.965 29.8338 193.9 29.939C193.835 30.0443 193.742 30.1293 193.631 30.1847L190.596 31.7027C190.411 31.7951 190.207 31.8433 190 31.8433C189.793 31.8433 189.589 31.7951 189.404 31.7027L186.596 30.2987C186.411 30.2062 186.207 30.158 186 30.158C185.793 30.158 185.589 30.2062 185.404 30.2987L182.965 31.5187C182.863 31.5695 182.75 31.5935 182.636 31.5883C182.523 31.5831 182.412 31.5489 182.315 31.4889C182.219 31.429 182.139 31.3453 182.084 31.2458C182.029 31.1464 182 31.0344 182 30.9207V22.412C182 22.2882 182.035 22.1669 182.1 22.0617C182.165 21.9564 182.258 21.8713 182.369 21.816L185.404 20.298C185.589 20.2055 185.793 20.1574 186 20.1574C186.207 20.1574 186.411 20.2055 186.596 20.298L189.404 21.702Z" stroke="#6A7282" stroke-width="1.6" stroke-linecap="round" stroke-linejoin="round"/>
<path d="M190 21.8427V31.8426" stroke="#6A7282" stroke-width="1.6" stroke-linecap="round" stroke-linejoin="round"/>
<path d="M186 20.1573V30.1573" stroke="#6A7282" stroke-width="1.6" stroke-linecap="round" stroke-linejoin="round"/>
<path d="M220.667 31.5733V30.24C220.667 29.5328 220.386 28.8545 219.886 28.3544C219.386 27.8543 218.707 27.5733 218 27.5733H214C213.293 27.5733 212.614 27.8543 212.114 28.3544C211.614 28.8545 211.333 29.5328 211.333 30.24V31.5733" stroke="#6A7282" stroke-width="1.6" stroke-linecap="round" stroke-linejoin="round"/>
<path d="M216 25.3333C217.473 25.3333 218.667 24.1394 218.667 22.6667C218.667 21.1939 217.473 20 216 20C214.527 20 213.333 21.1939 213.333 22.6667C213.333 24.1394 214.527 25.3333 216 25.3333Z" stroke="#6A7282" stroke-width="1.6" stroke-linecap="round" stroke-linejoin="round"/>
<path d="M240 26.6667C240.368 26.6667 240.667 26.3682 240.667 26C240.667 25.6318 240.368 25.3333 240 25.3333C239.632 25.3333 239.333 25.6318 239.333 26C239.333 26.3682 239.632 26.6667 240 26.6667Z" stroke="#A0522D" stroke-width="2.49901" stroke-linecap="round" stroke-linejoin="round"/>
<path d="M240 22C240.368 22 240.667 21.7015 240.667 21.3333C240.667 20.9651 240.368 20.6667 240 20.6667C239.632 20.6667 239.333 20.9651 239.333 21.3333C239.333 21.7015 239.632 22 240 22Z" stroke="#A0522D" stroke-width="2.49901" stroke-linecap="round" stroke-linejoin="round"/>
<path d="M240 31.3333C240.368 31.3333 240.667 31.0349 240.667 30.6667C240.667 30.2985 240.368 30 240 30C239.632 30 239.333 30.2985 239.333 30.6667C239.333 31.0349 239.632 31.3333 240 31.3333Z" stroke="#A0522D" stroke-width="2.49901" stroke-linecap="round" stroke-linejoin="round"/>
<path d="M266.667 29.3333L270 26L266.667 22.6667" stroke="#4A4A4A" stroke-width="1.33333" stroke-linecap="round" stroke-linejoin="round"/>
<path d="M270 26H262" stroke="#4A4A4A" stroke-width="1.33333" stroke-linecap="round" stroke-linejoin="round"/>
<path d="M262 32H259.333C258.98 32 258.641 31.8595 258.391 31.6095C258.14 31.3594 258 31.0203 258 30.6667V21.3333C258 20.9797 258.14 20.6406 258.391 20.3905C258.641 20.1405 258.98 20 259.333 20H262" stroke="#4A4A4A" stroke-width="1.33333" stroke-linecap="round" stroke-linejoin="round"/>
<path d="M288 30.6667L283.333 26L288 21.3333" stroke="#1A1A1A" stroke-width="1.33333" stroke-linecap="round" stroke-linejoin="round"/>
<path d="M292.667 26H283.333" stroke="#1A1A1A" stroke-width="1.33333" stroke-linecap="round" stroke-linejoin="round"/>
<defs>
<clipPath id="clip0_158_20">
<rect width="16" height="16" fill="white" transform="translate(72 52)"/>
</clipPath>
</defs>
</svg>
