<svg width="16" height="16" viewBox="0 0 16 16" fill="none" xmlns="http://www.w3.org/2000/svg">
<path d="M7.68332 1.52999C7.71254 1.47096 7.75767 1.42127 7.81362 1.38654C7.86958 1.3518 7.93413 1.33339 7.99999 1.33339C8.06585 1.33339 8.1304 1.3518 8.18635 1.38654C8.24231 1.42127 8.28744 1.47096 8.31666 1.52999L9.85666 4.64932C9.95811 4.85463 10.1079 5.03226 10.2931 5.16695C10.4783 5.30165 10.6934 5.38939 10.92 5.42265L14.364 5.92665C14.4292 5.93611 14.4906 5.96363 14.541 6.00612C14.5914 6.0486 14.6289 6.10435 14.6493 6.16706C14.6697 6.22976 14.6722 6.29692 14.6564 6.36094C14.6406 6.42496 14.6072 6.48329 14.56 6.52932L12.0693 8.95465C11.9051 9.11472 11.7822 9.31231 11.7112 9.53041C11.6403 9.7485 11.6234 9.98058 11.662 10.2067L12.25 13.6333C12.2615 13.6985 12.2545 13.7657 12.2297 13.8271C12.2048 13.8885 12.1633 13.9417 12.1097 13.9806C12.0561 14.0196 11.9926 14.0427 11.9266 14.0472C11.8605 14.0518 11.7945 14.0378 11.736 14.0067L8.65732 12.388C8.45447 12.2815 8.22878 12.2258 7.99966 12.2258C7.77054 12.2258 7.54484 12.2815 7.34199 12.388L4.26399 14.0067C4.20554 14.0376 4.13959 14.0515 4.07362 14.0468C4.00766 14.0421 3.94433 14.019 3.89085 13.9801C3.83737 13.9412 3.79588 13.8881 3.77109 13.8268C3.74631 13.7655 3.73923 13.6985 3.75066 13.6333L4.33799 10.2073C4.37679 9.98114 4.35998 9.74892 4.28901 9.53068C4.21805 9.31245 4.09506 9.11476 3.93066 8.95465L1.43999 6.52999C1.39239 6.48401 1.35865 6.42558 1.34263 6.36137C1.32661 6.29715 1.32895 6.22973 1.34938 6.16678C1.3698 6.10383 1.4075 6.04788 1.45817 6.00531C1.50885 5.96274 1.57046 5.93525 1.63599 5.92599L5.07932 5.42265C5.30616 5.38965 5.52158 5.30202 5.70705 5.16731C5.89251 5.0326 6.04246 4.85483 6.14399 4.64932L7.68332 1.52999Z" fill="#6A7282" stroke="#6A7282" stroke-width="1.66601" stroke-linecap="round" stroke-linejoin="round"/>
</svg>
