<svg width="16" height="16" viewBox="0 0 16 16" fill="none" xmlns="http://www.w3.org/2000/svg">
<path d="M9.404 3.70202C9.58907 3.79449 9.79312 3.84264 10 3.84264C10.2069 3.84264 10.4109 3.79449 10.596 3.70202L13.0353 2.48202C13.1371 2.43119 13.2501 2.40722 13.3637 2.41239C13.4773 2.41757 13.5876 2.45171 13.6843 2.51157C13.781 2.57143 13.8607 2.65503 13.916 2.7544C13.9713 2.85378 14.0002 2.96564 14 3.07935V11.5887C13.9999 11.7125 13.9654 11.8338 13.9003 11.939C13.8352 12.0443 13.7421 12.1294 13.6313 12.1847L10.596 13.7027C10.4109 13.7952 10.2069 13.8433 10 13.8433C9.79312 13.8433 9.58907 13.7952 9.404 13.7027L6.596 12.2987C6.41094 12.2062 6.20689 12.1581 6 12.1581C5.79312 12.1581 5.58907 12.2062 5.404 12.2987L2.96467 13.5187C2.8629 13.5695 2.74982 13.5935 2.63617 13.5883C2.52253 13.5831 2.41211 13.5489 2.31541 13.489C2.21872 13.429 2.13898 13.3453 2.08377 13.2459C2.02856 13.1464 1.99972 13.0344 2 12.9207V4.41202C2.00007 4.28824 2.03459 4.16693 2.0997 4.06167C2.16482 3.9564 2.25795 3.87134 2.36867 3.81602L5.404 2.29802C5.58907 2.20554 5.79312 2.15739 6 2.15739C6.20689 2.15739 6.41094 2.20554 6.596 2.29802L9.404 3.70202Z" stroke="#6A7282" stroke-width="1.6" stroke-linecap="round" stroke-linejoin="round"/>
<path d="M10 3.84265V13.8426" stroke="#6A7282" stroke-width="1.6" stroke-linecap="round" stroke-linejoin="round"/>
<path d="M6 2.15735V12.1573" stroke="#6A7282" stroke-width="1.6" stroke-linecap="round" stroke-linejoin="round"/>
</svg>
